<svg width="48" height="48" viewBox="0 0 48 48" fill="none" xmlns="http://www.w3.org/2000/svg">
<path d="M0 8C0 3.58172 3.58172 0 8 0H40C44.4183 0 48 3.58172 48 8V40C48 44.4183 44.4183 48 40 48H8C3.58172 48 0 44.4183 0 40V8Z" fill="#0167CB"/>
<path d="M24 15C23.7045 15 23.4119 15.0582 23.139 15.1713C22.866 15.2843 22.6179 15.4501 22.409 15.659C22.2001 15.8679 22.0343 16.116 21.9213 16.389C21.8082 16.6619 21.75 16.9545 21.75 17.25C21.75 17.5455 21.8082 17.8381 21.9213 18.111C22.0343 18.384 22.2001 18.6321 22.409 18.841C22.6179 19.0499 22.866 19.2157 23.139 19.3287C23.4119 19.4418 23.7045 19.5 24 19.5C24.5967 19.5 25.169 19.2629 25.591 18.841C26.0129 18.419 26.25 17.8467 26.25 17.25C26.25 16.6533 26.0129 16.081 25.591 15.659C25.169 15.2371 24.5967 15 24 15ZM20.25 17.25C20.25 16.2554 20.6451 15.3016 21.3483 14.5983C22.0516 13.8951 23.0054 13.5 24 13.5C24.9946 13.5 25.9484 13.8951 26.6517 14.5983C27.3549 15.3016 27.75 16.2554 27.75 17.25C27.75 18.2446 27.3549 19.1984 26.6517 19.9017C25.9484 20.6049 24.9946 21 24 21C23.0054 21 22.0516 20.6049 21.3483 19.9017C20.6451 19.1984 20.25 18.2446 20.25 17.25ZM18 24.75C18.001 24.476 18.029 24.211 18.084 23.955L15.168 24.735C14.8825 24.8116 14.615 24.9436 14.3806 25.1236C14.1461 25.3037 13.9495 25.5281 13.8018 25.7841C13.6542 26.0401 13.5584 26.3227 13.52 26.6158C13.4816 26.9088 13.5013 27.2066 13.578 27.492L14.16 29.6655C14.3165 30.2487 14.5887 30.7944 14.9605 31.2702C15.3323 31.746 15.7961 32.1421 16.3242 32.4349C16.8522 32.7277 17.4339 32.9112 18.0344 32.9746C18.6349 33.0379 19.242 32.9797 19.8195 32.8035C19.4183 32.4144 19.0735 31.9711 18.795 31.4865C18.0884 31.5547 17.3805 31.3701 16.7971 30.9656C16.2138 30.561 15.7928 29.9627 15.609 29.277L15.0255 27.102C14.9742 26.9099 15.0013 26.7052 15.1009 26.533C15.2005 26.3609 15.3644 26.2353 15.5565 26.184L18 25.53V24.75ZM28.329 32.847L28.179 32.805C28.5795 32.415 28.926 31.9725 29.205 31.4865C29.9116 31.5547 30.6195 31.3701 31.2029 30.9656C31.7862 30.561 32.2072 29.9627 32.391 29.277L32.973 27.102C33.0243 26.9101 32.9974 26.7056 32.8981 26.5335C32.7989 26.3614 32.6354 26.2357 32.4435 26.184L30 25.53V24.75C29.999 24.476 29.971 24.211 29.916 23.955L32.8305 24.735C33.1161 24.8114 33.3838 24.9434 33.6184 25.1233C33.853 25.3032 34.0498 25.5276 34.1976 25.7837C34.3454 26.0397 34.4413 26.3224 34.4798 26.6155C34.5183 26.9086 34.4987 27.2065 34.422 27.492L33.84 29.6655C33.5307 30.8179 32.7764 31.8002 31.7429 32.3965C30.7095 32.9929 29.4815 33.1559 28.329 32.847ZM15 19.5C15 19.1022 15.158 18.7206 15.4393 18.4393C15.7206 18.158 16.1022 18 16.5 18C16.8978 18 17.2794 18.158 17.5607 18.4393C17.842 18.7206 18 19.1022 18 19.5C18 19.8978 17.842 20.2794 17.5607 20.5607C17.2794 20.842 16.8978 21 16.5 21C16.1022 21 15.7206 20.842 15.4393 20.5607C15.158 20.2794 15 19.8978 15 19.5ZM16.5 16.5C15.7044 16.5 14.9413 16.8161 14.3787 17.3787C13.8161 17.9413 13.5 18.7044 13.5 19.5C13.5 20.2956 13.8161 21.0587 14.3787 21.6213C14.9413 22.1839 15.7044 22.5 16.5 22.5C17.2956 22.5 18.0587 22.1839 18.6213 21.6213C19.1839 21.0587 19.5 20.2956 19.5 19.5C19.5 18.7044 19.1839 17.9413 18.6213 17.3787C18.0587 16.8161 17.2956 16.5 16.5 16.5ZM31.5 18C31.1022 18 30.7206 18.158 30.4393 18.4393C30.158 18.7206 30 19.1022 30 19.5C30 19.8978 30.158 20.2794 30.4393 20.5607C30.7206 20.842 31.1022 21 31.5 21C31.8978 21 32.2794 20.842 32.5607 20.5607C32.842 20.2794 33 19.8978 33 19.5C33 19.1022 32.842 18.7206 32.5607 18.4393C32.2794 18.158 31.8978 18 31.5 18ZM28.5 19.5C28.5 18.7044 28.8161 17.9413 29.3787 17.3787C29.9413 16.8161 30.7044 16.5 31.5 16.5C32.2956 16.5 33.0587 16.8161 33.6213 17.3787C34.1839 17.9413 34.5 18.7044 34.5 19.5C34.5 20.2956 34.1839 21.0587 33.6213 21.6213C33.0587 22.1839 32.2956 22.5 31.5 22.5C30.7044 22.5 29.9413 22.1839 29.3787 21.6213C28.8161 21.0587 28.5 20.2956 28.5 19.5ZM21.75 22.5C21.1533 22.5 20.581 22.7371 20.159 23.159C19.7371 23.581 19.5 24.1533 19.5 24.75V28.5C19.5 29.6935 19.9741 30.8381 20.818 31.682C21.6619 32.5259 22.8065 33 24 33C25.1935 33 26.3381 32.5259 27.182 31.682C28.0259 30.8381 28.5 29.6935 28.5 28.5V24.75C28.5 24.1533 28.2629 23.581 27.841 23.159C27.419 22.7371 26.8467 22.5 26.25 22.5H21.75ZM21 24.75C21 24.5511 21.079 24.3603 21.2197 24.2197C21.3603 24.079 21.5511 24 21.75 24H26.25C26.4489 24 26.6397 24.079 26.7803 24.2197C26.921 24.3603 27 24.5511 27 24.75V28.5C27 29.2956 26.6839 30.0587 26.1213 30.6213C25.5587 31.1839 24.7956 31.5 24 31.5C23.2044 31.5 22.4413 31.1839 21.8787 30.6213C21.3161 30.0587 21 29.2956 21 28.5V24.75Z" fill="#FAFAFA"/>
</svg>
