<svg width="48" height="48" viewBox="0 0 48 48" fill="none" xmlns="http://www.w3.org/2000/svg">
<path d="M0 8C0 3.58172 3.58172 0 8 0H40C44.4183 0 48 3.58172 48 8V40C48 44.4183 44.4183 48 40 48H8C3.58172 48 0 44.4183 0 40V8Z" fill="#0167CB"/>
<path d="M18 15V18H15V15H18ZM13.5 13.5V19.5H19.5V13.5H13.5ZM25.5 17.25V20.25H22.5V17.25H25.5ZM21 15.75V21.75H27V15.75H21ZM18 24V27H15V24H18ZM13.5 22.5V28.5H19.5V22.5H13.5Z" fill="#FAFAFA"/>
<path d="M28.5 19.5V24H24V28.5H19.5V34.5H34.5V19.5H28.5ZM25.5 25.5H28.5V28.5H25.5V25.5ZM24 33H21V30H24V33ZM28.5 33H25.5V30H28.5V33ZM33 33H30V30H33V33ZM33 28.5H30V25.5H33V28.5ZM30 24V21H33V24H30Z" fill="#FAFAFA"/>
</svg>
