<svg width="48" height="48" viewBox="0 0 48 48" fill="none" xmlns="http://www.w3.org/2000/svg">
<path d="M0 8C0 3.58172 3.58172 0 8 0H40C44.4183 0 48 3.58172 48 8V40C48 44.4183 44.4183 48 40 48H8C3.58172 48 0 44.4183 0 40V8Z" fill="#0167CB"/>
<path opacity="0.927" fill-rule="evenodd" clip-rule="evenodd" d="M22.5232 13.852C23.853 13.7118 24.9936 14.1025 25.9451 15.0238C27.0927 13.9244 28.4365 13.5885 29.9763 14.016C31.627 14.6516 32.502 15.8547 32.6013 17.6254C32.596 18.2769 32.4476 18.8941 32.156 19.477C31.3684 20.9167 30.3606 22.1901 29.1326 23.2973C28.1869 24.1808 27.1869 24.9933 26.1326 25.7348C25.9857 25.7718 25.845 25.7562 25.7107 25.6879C24.1873 24.6185 22.7888 23.3919 21.5154 22.0082C20.8176 21.2223 20.2238 20.363 19.7341 19.4301C18.9188 17.5373 19.286 15.9201 20.8357 14.5785C21.3522 14.2185 21.9147 13.9763 22.5232 13.852ZM22.8513 14.602C24.0756 14.5657 25.0444 15.0423 25.7576 16.0317C25.9199 16.0699 26.0762 16.0543 26.2263 15.9848C27.1995 14.7022 28.4495 14.3272 29.9763 14.8598C31.4156 15.5899 32.0016 16.754 31.7341 18.352C31.5051 19.06 31.177 19.7163 30.7498 20.3207C29.3605 22.0652 27.7589 23.5808 25.9451 24.8676C24.2994 23.6988 22.8228 22.3394 21.5154 20.7895C20.9327 20.0932 20.4952 19.3119 20.2029 18.4457C19.8854 16.917 20.3932 15.753 21.7263 14.9535C22.0909 14.7824 22.4659 14.6652 22.8513 14.602Z" fill="#FAFAFA"/>
<path opacity="0.936" fill-rule="evenodd" clip-rule="evenodd" d="M12.5398 24.1637C13.6669 24.1427 14.7919 24.1661 15.9148 24.2341C16.4858 24.4378 16.8296 24.8362 16.946 25.4294C17.8055 25.4215 18.6649 25.4294 19.5242 25.4528C20.0659 25.524 20.5815 25.6802 21.071 25.9216C21.8935 26.325 22.7216 26.7156 23.5554 27.0934C24.917 27.0949 26.2764 27.1262 27.6335 27.1872C28.2335 27.4516 28.5461 27.9125 28.571 28.57C30.2353 27.8666 31.8916 27.1401 33.5398 26.3903C34.5879 26.0745 35.2988 26.4261 35.6726 27.445C35.7789 28.1142 35.568 28.6533 35.0398 29.0622C32.0793 30.5971 29.1261 32.144 26.1804 33.7028C25.3918 34.0987 24.5637 34.208 23.696 34.0309C22.0837 33.5091 20.4744 32.9779 18.8679 32.4372C18.2349 32.3004 17.5943 32.2457 16.946 32.2731C16.8337 32.9715 16.4274 33.3855 15.7273 33.5153C14.6492 33.5466 13.571 33.5466 12.4929 33.5153C12.4258 33.4935 12.3712 33.4544 12.3289 33.3981C12.2511 30.402 12.2355 27.402 12.282 24.3981C12.3338 24.2756 12.4198 24.1975 12.5398 24.1637ZM13.0085 24.9606C13.8993 24.9528 14.7899 24.9606 15.6804 24.9841C15.9226 25.07 16.0867 25.234 16.1726 25.4762C16.2039 27.7262 16.2039 29.9762 16.1726 32.2262C16.1023 32.4841 15.9382 32.6481 15.6804 32.7184C14.7899 32.7419 13.8993 32.7497 13.0085 32.7419C13.0085 30.1481 13.0085 27.5544 13.0085 24.9606ZM16.9929 26.1794C17.6962 26.1715 18.3994 26.1794 19.1023 26.2028C19.4046 26.2158 19.7014 26.2627 19.9929 26.3434C21.1078 26.8306 22.2172 27.3306 23.321 27.8434C24.6179 27.859 25.9148 27.8747 27.2117 27.8903C27.7038 28.0385 27.8678 28.3588 27.7039 28.8512C27.5977 28.9887 27.4649 29.0903 27.3054 29.1559C25.7429 29.1715 24.1804 29.1872 22.6179 29.2028C22.3784 29.3606 22.3237 29.5715 22.4539 29.8356C22.5087 29.9009 22.5791 29.94 22.6648 29.9528C24.2916 29.9981 25.9167 29.9825 27.5398 29.9059C29.7474 28.9358 31.9583 27.9748 34.1726 27.0231C34.7589 27.1345 34.9933 27.4783 34.8757 28.0544C34.7235 28.3002 34.5125 28.4799 34.2429 28.5934C31.3367 30.109 28.4304 31.6247 25.5242 33.1403C24.9561 33.3724 24.378 33.4036 23.7898 33.2341C22.1706 32.6839 20.5456 32.1526 18.9148 31.6403C18.2788 31.5362 17.6382 31.4971 16.9929 31.5231C16.9929 29.7419 16.9929 27.9606 16.9929 26.1794Z" fill="#FAFAFA"/>
</svg>
