<svg width="48" height="48" viewBox="0 0 48 48" fill="none" xmlns="http://www.w3.org/2000/svg">
<path d="M0 8C0 3.58172 3.58172 0 8 0H40C44.4183 0 48 3.58172 48 8V40C48 44.4183 44.4183 48 40 48H8C3.58172 48 0 44.4183 0 40V8Z" fill="#0167CB"/>
<path d="M15 21L24 14L33 21V32C33 32.5304 32.7893 33.0391 32.4142 33.4142C32.0391 33.7893 31.5304 34 31 34H17C16.4696 34 15.9609 33.7893 15.5858 33.4142C15.2107 33.0391 15 32.5304 15 32V21Z" stroke="#FAFAFA" stroke-width="2" stroke-linecap="round" stroke-linejoin="round"/>
<path d="M21 34V24H27V34" stroke="#FAFAFA" stroke-width="2" stroke-linecap="round" stroke-linejoin="round"/>
</svg>
