<svg width="48" height="48" viewBox="0 0 48 48" fill="none" xmlns="http://www.w3.org/2000/svg">
<path d="M0 8C0 3.58172 3.58172 0 8 0H40C44.4183 0 48 3.58172 48 8V40C48 44.4183 44.4183 48 40 48H8C3.58172 48 0 44.4183 0 40V8Z" fill="#0167CB"/>
<path opacity="0.93" fill-rule="evenodd" clip-rule="evenodd" d="M24.7324 9.43896C24.9362 9.42046 25.1316 9.44976 25.3184 9.52686C25.8768 10.1048 26.4529 10.6614 27.0469 11.1968C27.2004 11.5032 27.1516 11.7668 26.9004 11.9878C26.1799 12.4641 25.4378 12.9036 24.6738 13.3062C24.1592 13.1589 24.042 12.8562 24.3223 12.3979C24.6312 12.2256 24.9241 12.0303 25.2012 11.812C20.1699 11.52 16.2734 13.4634 13.5117 17.6421C11.275 21.6338 11.1773 25.6768 13.2188 29.771C14.4044 31.8551 16.0255 33.5153 18.082 34.7515C18.2119 35.2853 18.0068 35.5294 17.4668 35.4839C13.1617 32.8926 10.9156 29.0645 10.7285 23.9995C10.9209 18.8336 13.2256 14.9469 17.6426 12.3394C19.9952 11.1149 22.4952 10.5876 25.1426 10.7573C24.8984 10.5913 24.6933 10.3862 24.5273 10.1421C24.4449 9.8524 24.5132 9.61803 24.7324 9.43896Z" fill="#FAFAFA"/>
<path opacity="0.93" fill-rule="evenodd" clip-rule="evenodd" d="M30.1226 12.4273C30.2413 12.4178 30.3585 12.4276 30.4741 12.4566C34.7792 15.0478 37.0253 18.8759 37.2124 23.941C37.02 29.1069 34.7153 32.9936 30.2983 35.6012C27.9459 36.8255 25.446 37.3529 22.7983 37.1832C23.1405 37.3778 23.3554 37.661 23.4429 38.0328C23.3981 38.4565 23.1637 38.603 22.7397 38.4723C22.1245 37.8961 21.5093 37.3199 20.894 36.7437C20.7405 36.4374 20.7893 36.1737 21.0405 35.9527C21.761 35.4764 22.5031 35.0369 23.2671 34.6344C23.7817 34.7816 23.8989 35.0843 23.6186 35.5426C23.3156 35.7233 23.0226 35.9187 22.7397 36.1285C27.9756 36.4162 31.9503 34.3361 34.6636 29.8883C36.8079 25.6825 36.6907 21.5418 34.312 17.4664C33.1516 15.7004 31.6672 14.2747 29.8589 13.1891C29.7559 12.8566 29.8438 12.6026 30.1226 12.4273Z" fill="#FAFAFA"/>
<path opacity="0.935" fill-rule="evenodd" clip-rule="evenodd" d="M21.7447 14.1282C22.5127 14.0097 23.2158 14.1659 23.854 14.5969C23.9152 14.4258 24.0128 14.2793 24.147 14.1575C24.7329 14.1184 25.3189 14.1184 25.9048 14.1575C25.9887 14.1847 26.057 14.2335 26.1099 14.3039C26.2815 14.7999 26.4865 15.2784 26.7251 15.7395C27.3612 15.9253 27.9667 16.1792 28.5415 16.5012C29.0289 16.395 29.4977 16.2193 29.9478 15.9739C30.1599 15.9246 30.3552 15.9637 30.5337 16.091C31.1702 16.708 31.7855 17.3428 32.3794 17.9953C32.4185 18.1711 32.4185 18.3469 32.3794 18.5227C32.2014 18.9275 32.0159 19.3279 31.8228 19.7239C32.1759 20.3339 32.4493 20.9784 32.6431 21.6575C32.6668 21.7128 32.7059 21.7519 32.7603 21.7746C33.216 21.9342 33.6653 22.11 34.1079 22.302C34.1783 22.3549 34.2272 22.4232 34.2544 22.5071C34.2935 23.4836 34.2935 24.4602 34.2544 25.4368C34.1811 25.6056 34.0542 25.713 33.8736 25.759C33.4807 25.8998 33.0901 26.0462 32.7017 26.1985C32.4713 26.8993 32.1783 27.5731 31.8228 28.22C32.0159 28.6159 32.2014 29.0163 32.3794 29.4211C32.4285 29.6435 32.409 29.8583 32.3208 30.0657C31.6824 30.7433 31.0086 31.3781 30.2994 31.97C30.1822 32.009 30.065 32.009 29.9478 31.97C29.5246 31.7681 29.095 31.5826 28.6587 31.4133C28.0424 31.7394 27.3979 32.0031 26.7251 32.2043C26.4865 32.6654 26.2815 33.1439 26.1099 33.6399C26.057 33.7102 25.9887 33.7591 25.9048 33.7864C25.3189 33.8254 24.7329 33.8254 24.147 33.7864C24.0128 33.6645 23.9152 33.5181 23.854 33.3469C23.1324 33.8155 22.3511 33.9425 21.5103 33.7278C20.792 33.4879 20.2646 33.029 19.9283 32.3508C19.0818 32.1428 18.4568 31.6545 18.0533 30.886C17.0102 30.8384 16.1996 30.3892 15.6216 29.5383C15.4891 29.2776 15.3915 29.0041 15.3286 28.718C13.8556 27.9318 13.3673 26.7405 13.8638 25.1438C14.0918 24.6917 14.3945 24.3011 14.772 23.9719C13.609 22.9516 13.3648 21.7407 14.0396 20.3391C14.3799 19.8619 14.8096 19.4908 15.3286 19.2258C15.5345 18.335 16.0521 17.7002 16.8814 17.3215C17.2627 17.1926 17.6533 17.1047 18.0533 17.0578C18.4568 16.2893 19.0818 15.801 19.9283 15.593C20.3251 14.8389 20.9306 14.3506 21.7447 14.1282ZM22.272 15.0657C23.1153 15.1502 23.6524 15.5994 23.8833 16.4133C23.9224 18.3274 23.9224 20.2414 23.8833 22.1555C23.5979 23.1433 22.9436 23.5633 21.9204 23.4153C21.4247 23.2516 21.0536 22.9391 20.8072 22.4778C20.3668 22.2569 20.0738 22.3838 19.9283 22.8586C19.9928 23.0952 20.11 23.3003 20.2798 23.4739C18.9908 23.5129 17.7017 23.5129 16.4126 23.4739C15.2245 23.321 14.6483 22.6472 14.6841 21.4524C14.7731 21.0001 15.0075 20.6486 15.3872 20.3977C15.5539 20.8964 15.8372 21.3163 16.2369 21.6575C16.6815 21.8253 16.9549 21.6788 17.0572 21.218C16.9707 20.9266 16.8046 20.6922 16.5591 20.5149C16.0723 19.5531 16.297 18.8012 17.2329 18.259C17.5948 18.1088 17.9659 18.0795 18.3462 18.1711C18.4713 18.1702 18.5885 18.141 18.6978 18.0832C18.8467 17.8327 18.9736 17.5691 19.0786 17.2922C19.2384 17.0758 19.4337 16.9001 19.6646 16.7649C19.728 17.405 19.9624 17.9714 20.3677 18.4641C20.8266 18.7081 21.1097 18.5812 21.2173 18.0832C21.0131 17.7034 20.8471 17.3031 20.7193 16.8821C20.6654 16.2574 20.89 15.7593 21.3931 15.3879C21.6724 15.2267 21.9653 15.1192 22.272 15.0657ZM24.9087 15.0657C25.0622 15.05 25.2087 15.0695 25.3482 15.1243C25.5145 15.6224 25.7195 16.101 25.9634 16.5598C26.8926 16.8011 27.7715 17.1624 28.6001 17.6438C29.0817 17.4812 29.5505 17.2858 30.0064 17.0578C30.4645 17.4867 30.9138 17.9261 31.354 18.3762C31.161 18.7722 30.9754 19.1726 30.7974 19.5774C30.7583 19.6946 30.7583 19.8118 30.7974 19.9289C31.2515 20.7246 31.6031 21.5645 31.8521 22.4485C32.3029 22.6606 32.7619 22.856 33.229 23.0344C33.3071 23.6594 33.3071 24.2844 33.229 24.9094C32.7619 25.0878 32.3029 25.2832 31.8521 25.4953C31.6031 26.3793 31.2515 27.2192 30.7974 28.0149C30.7583 28.1321 30.7583 28.2493 30.7974 28.3664C30.9754 28.7713 31.161 29.1716 31.354 29.5676C30.9138 30.0177 30.4645 30.4571 30.0064 30.886C29.5505 30.658 29.0817 30.4626 28.6001 30.3C27.7715 30.7814 26.8926 31.1427 25.9634 31.384C25.7195 31.8429 25.5145 32.3214 25.3482 32.8196C25.2087 32.8743 25.0622 32.8939 24.9087 32.8782C24.8989 31.5499 24.9087 30.2218 24.938 28.8938C27.6542 28.3746 29.1288 26.734 29.3619 23.9719C29.1288 21.2098 27.6542 19.5692 24.938 19.05C24.9087 17.7221 24.8989 16.3939 24.9087 15.0657ZM24.9087 20.1047C26.4463 20.3434 27.5108 21.1833 28.1021 22.6243C28.6744 24.5989 28.1177 26.1712 26.4322 27.341C25.956 27.6072 25.4481 27.7732 24.9087 27.8391C24.9327 27.0158 24.9034 26.1955 24.8208 25.3782C24.6487 24.8251 24.3459 24.3564 23.9126 23.9719C24.3459 23.5874 24.6487 23.1187 24.8208 22.5657C24.9034 21.7483 24.9327 20.928 24.9087 20.1047ZM16.4126 24.4407C17.7019 24.4309 18.9909 24.4407 20.2798 24.47C19.9639 24.7507 19.8955 25.0729 20.0747 25.4368C20.3125 25.649 20.5566 25.6587 20.8072 25.466C21.3628 24.5191 22.144 24.2652 23.1509 24.7043C23.5329 24.9697 23.777 25.331 23.8833 25.7883C23.9224 27.7024 23.9224 29.6164 23.8833 31.5305C23.4906 32.6888 22.7192 33.0696 21.5689 32.6731C20.5774 31.9336 20.4504 31.0645 21.188 30.0657C21.2759 29.5285 21.0513 29.3039 20.5142 29.3918C20.0059 29.8716 19.7227 30.4673 19.6646 31.1789C19.4337 31.0438 19.2384 30.868 19.0786 30.6516C18.9736 30.3747 18.8467 30.1111 18.6978 29.8606C18.4303 29.7617 18.1569 29.752 17.8775 29.8313C16.7905 29.6724 16.2729 29.0474 16.3247 27.9563C16.4495 27.5596 16.6643 27.2276 16.9693 26.9602C17.1219 26.538 16.9754 26.2841 16.5298 26.1985C16.1698 26.3334 15.8866 26.5677 15.6802 26.9016C15.5665 27.1095 15.4689 27.3243 15.3872 27.5461C14.5828 26.8879 14.4461 26.1067 14.9771 25.2024C15.3519 24.7368 15.8304 24.483 16.4126 24.4407Z" fill="#FAFAFA"/>
<path opacity="0.921" fill-rule="evenodd" clip-rule="evenodd" d="M19.9271 19.4011C20.6362 19.307 21.3003 19.434 21.9193 19.782C22.1243 19.909 22.2903 20.075 22.4173 20.28C22.4729 20.7908 22.2483 20.9959 21.7435 20.8953C21.0761 20.3272 20.3534 20.249 19.5755 20.6609C19.4485 20.7879 19.3216 20.9148 19.1946 21.0418C19.0473 21.3677 18.9009 21.69 18.7552 22.0086C18.1649 22.2167 17.9012 22.0117 17.9642 21.3933C18.238 20.3481 18.8923 19.684 19.9271 19.4011Z" fill="#FAFAFA"/>
<path opacity="0.921" fill-rule="evenodd" clip-rule="evenodd" d="M18.2285 25.8464C18.413 25.8295 18.5888 25.8588 18.7559 25.9343C18.9015 26.2529 19.048 26.5752 19.1953 26.9011C19.6453 27.4548 20.2215 27.6599 20.9238 27.5164C21.2263 27.4089 21.4997 27.2526 21.7441 27.0476C22.249 26.947 22.4736 27.1521 22.418 27.6629C22.0697 28.1158 21.6108 28.399 21.041 28.5125C19.3603 28.6986 18.3252 27.9759 17.9355 26.3445C17.937 26.1163 18.0347 25.9503 18.2285 25.8464Z" fill="#FAFAFA"/>
</svg>
