<svg width="48" height="48" viewBox="0 0 48 48" fill="none" xmlns="http://www.w3.org/2000/svg">
<path d="M0 8C0 3.58172 3.58172 0 8 0H40C44.4183 0 48 3.58172 48 8V40C48 44.4183 44.4183 48 40 48H8C3.58172 48 0 44.4183 0 40V8Z" fill="#0167CB"/>
<path d="M15.5 15.5008H21.9285V21.9293H15.5V15.5008ZM29.285 22.6542L25.3457 18.7148L29.285 14.7755L33.2243 18.7148L29.285 22.6542ZM15.5 26.0723H21.9285V32.5008H15.5V26.0723ZM26.0715 26.0723H32.5V32.5008H26.0715V26.0723Z" stroke="#FAFAFA" stroke-width="1.5" stroke-linecap="round" stroke-linejoin="round"/>
</svg>
