<svg width="48" height="48" viewBox="0 0 48 48" fill="none" xmlns="http://www.w3.org/2000/svg">
<path d="M0 8C0 3.58172 3.58172 0 8 0H40C44.4183 0 48 3.58172 48 8V40C48 44.4183 44.4183 48 40 48H8C3.58172 48 0 44.4183 0 40V8Z" fill="#0167CB"/>
<path opacity="0.946" fill-rule="evenodd" clip-rule="evenodd" d="M25.4056 9.84375C28.7577 12.3749 32.091 14.9374 35.4056 17.5312C35.458 22.6772 35.4372 27.8231 35.3431 32.9688C33.5514 32.9688 31.7598 32.9688 29.9681 32.9688C29.9681 32.6562 29.9681 32.3438 29.9681 32.0312C31.4473 32.0312 32.9264 32.0312 34.4056 32.0312C34.497 27.6984 34.5178 23.3651 34.4681 19.0312C31.4943 16.6958 28.5048 14.3833 25.4993 12.0938C22.8362 14.1524 20.1904 16.2358 17.5618 18.3438C17.5098 17.5929 17.5202 16.8429 17.5931 16.0938C20.2 14.0071 22.8041 11.9237 25.4056 9.84375Z" fill="#FAFAFA"/>
<path opacity="0.956" fill-rule="evenodd" clip-rule="evenodd" d="M14.7813 14.9062C16.2122 15.0348 16.8059 15.8056 16.5625 17.2187C16.1369 18.2076 15.3973 18.5722 14.3438 18.3125C13.3269 17.8306 12.9832 17.0494 13.3125 15.9687C13.6211 15.3572 14.1107 15.0031 14.7813 14.9062Z" fill="#FAFAFA"/>
<path opacity="0.974" fill-rule="evenodd" clip-rule="evenodd" d="M14.4058 18.8442C15.6729 18.7232 16.4542 19.2857 16.7496 20.5317C16.9987 21.6251 17.0716 22.7293 16.9683 23.8442C17.4971 23.8254 18.018 23.8775 18.5308 24.0004C18.7444 24.1457 18.8903 24.3436 18.9683 24.5942C19.477 24.6099 19.9249 24.7765 20.3121 25.0942C20.3724 23.2214 21.3412 22.3152 23.2183 22.3754C24.3631 22.6084 25.0401 23.3064 25.2496 24.4692C25.2808 25.8857 25.2912 27.3024 25.2808 28.7192C26.0727 28.7088 26.8644 28.7192 27.6558 28.7504C28.3098 28.9044 28.7161 29.3107 28.8746 29.9692C28.9344 30.2581 28.9761 30.5498 28.9996 30.8442C28.9475 31.8025 28.9579 32.7608 29.0308 33.7192C29.5361 33.727 30.0152 33.8416 30.4683 34.0629C30.7309 34.2759 30.8976 34.5467 30.9683 34.8754C31.5933 34.8963 32.2183 34.9171 32.8433 34.9379C33.0933 35.1879 33.0933 35.4379 32.8433 35.6879C30.8642 35.7192 28.8851 35.7296 26.9058 35.7192C27.4324 33.3254 26.6407 31.5233 24.5308 30.3129C23.2249 29.764 21.9227 29.7744 20.6246 30.3442C20.5933 30.3234 20.5621 30.3025 20.5308 30.2817C20.5858 29.2135 20.5129 28.151 20.3121 27.0942C20.2123 26.5508 19.9727 26.0821 19.5933 25.6879C19.3056 25.564 19.0036 25.5119 18.6871 25.5317C16.9276 25.6874 15.1672 25.6978 13.4058 25.5629C13.0804 25.4026 12.8825 25.1422 12.8121 24.7817C12.4024 23.1843 12.4441 21.601 12.9371 20.0317C13.2351 19.3892 13.7247 18.9933 14.4058 18.8442Z" fill="#FAFAFA"/>
<path opacity="0.956" fill-rule="evenodd" clip-rule="evenodd" d="M22.7806 18.8438C23.8881 18.9823 24.4194 19.6073 24.3744 20.7188C23.9501 21.9231 23.148 22.2669 21.9681 21.75C21.1663 21.0343 21.0725 20.2322 21.6869 19.3438C22.0066 19.0639 22.3712 18.8972 22.7806 18.8438Z" fill="#FAFAFA"/>
<path opacity="0.969" fill-rule="evenodd" clip-rule="evenodd" d="M16.5938 25.9688C16.6998 26.0816 16.7519 26.2274 16.75 26.4062C17.1747 30.1117 17.5497 33.82 17.875 37.5312C17.6902 37.8996 17.3881 38.0454 16.9688 37.9688C16.555 38.0589 16.2738 37.9131 16.125 37.5312C15.7151 35.259 15.2984 32.9882 14.875 30.7188C14.6218 33.0734 14.3718 35.4275 14.125 37.7812C13.9217 38.0538 13.6509 38.1579 13.3125 38.0938C12.9435 38.1696 12.6727 38.0446 12.5 37.7188C12.5995 33.8622 12.7558 30.008 12.9688 26.1562C14.1898 26.2069 15.3981 26.1444 16.5938 25.9688Z" fill="#FAFAFA"/>
<path opacity="0.944" fill-rule="evenodd" clip-rule="evenodd" d="M22.1566 30.5938C24.6881 30.5838 26.1048 31.8338 26.4066 34.3438C26.2521 36.3629 25.1896 37.6024 23.2191 38.0626C21.5153 38.2367 20.2133 37.6012 19.3128 36.1563C18.4237 34.0535 18.9133 32.3556 20.7816 31.0626C21.224 30.8353 21.6823 30.6791 22.1566 30.5938ZM22.1566 31.9688C23.6582 31.8594 24.6062 32.5261 25.0003 33.9688C25.0891 35.3227 24.4953 36.2289 23.2191 36.6876C21.6551 36.9002 20.6655 36.2439 20.2503 34.7188C20.1893 33.3122 20.8247 32.3956 22.1566 31.9688Z" fill="#FAFAFA"/>
</svg>
