<svg width="49" height="48" viewBox="0 0 49 48" fill="none" xmlns="http://www.w3.org/2000/svg">
<path d="M0.5 8C0.5 3.58172 4.08172 0 8.5 0H40.5C44.9183 0 48.5 3.58172 48.5 8V40C48.5 44.4183 44.9183 48 40.5 48H8.5C4.08172 48 0.5 44.4183 0.5 40V8Z" fill="#0167CB"/>
<path d="M24.5 34C30.0228 34 34.5 29.5228 34.5 24C34.5 18.4772 30.0228 14 24.5 14C18.9772 14 14.5 18.4772 14.5 24C14.5 29.5228 18.9772 34 24.5 34Z" stroke="#FAFAFA" stroke-width="2" stroke-linecap="round" stroke-linejoin="round"/>
<path d="M24.5 28C26.7091 28 28.5 26.2091 28.5 24C28.5 21.7909 26.7091 20 24.5 20C22.2909 20 20.5 21.7909 20.5 24C20.5 26.2091 22.2909 28 24.5 28Z" stroke="#FAFAFA" stroke-width="2" stroke-linecap="round" stroke-linejoin="round"/>
<path d="M17.4297 16.9297L21.6697 21.1697" stroke="#FAFAFA" stroke-width="2" stroke-linecap="round" stroke-linejoin="round"/>
<path d="M27.33 26.8301L31.57 31.0701" stroke="#FAFAFA" stroke-width="2" stroke-linecap="round" stroke-linejoin="round"/>
<path d="M27.3301 21.1697L31.5701 16.9297" stroke="#FAFAFA" stroke-width="2" stroke-linecap="round" stroke-linejoin="round"/>
<path d="M27.3301 21.1706L30.8601 17.6406" stroke="#FAFAFA" stroke-width="2" stroke-linecap="round" stroke-linejoin="round"/>
<path d="M17.4297 31.0701L21.6697 26.8301" stroke="#FAFAFA" stroke-width="2" stroke-linecap="round" stroke-linejoin="round"/>
</svg>
