<svg width="49" height="48" viewBox="0 0 49 48" fill="none" xmlns="http://www.w3.org/2000/svg">
<path d="M0.5 8C0.5 3.58172 4.08172 0 8.5 0H40.5C44.9183 0 48.5 3.58172 48.5 8V40C48.5 44.4183 44.9183 48 40.5 48H8.5C4.08172 48 0.5 44.4183 0.5 40V8Z" fill="#0167CB"/>
<path d="M35.5 30V28.5H33.9242C33.827 28.0307 33.6406 27.5844 33.3752 27.1852L34.4928 26.0677L33.4323 25.0073L32.3148 26.1248C31.9156 25.8594 31.4693 25.673 31 25.5757V24H29.5V25.5757C29.0307 25.673 28.5844 25.8594 28.1852 26.1248L27.0677 25.0073L26.0073 26.0677L27.1248 27.1852C26.8594 27.5844 26.673 28.0307 26.5757 28.5H25V30H26.5757C26.673 30.4693 26.8594 30.9156 27.1248 31.3148L26.0073 32.4323L27.0677 33.4928L28.1852 32.3752C28.5844 32.6406 29.0307 32.827 29.5 32.9242V34.5H31V32.9242C31.4693 32.827 31.9156 32.6406 32.3148 32.3752L33.4323 33.4928L34.4928 32.4323L33.3752 31.3148C33.6406 30.9156 33.827 30.4693 33.9242 30H35.5ZM30.25 31.5C29.805 31.5 29.37 31.368 29 31.1208C28.63 30.8736 28.3416 30.5222 28.1713 30.111C28.001 29.6999 27.9564 29.2475 28.0432 28.811C28.13 28.3746 28.3443 27.9737 28.659 27.659C28.9737 27.3443 29.3746 27.13 29.811 27.0432C30.2475 26.9564 30.6999 27.001 31.111 27.1713C31.5222 27.3416 31.8736 27.63 32.1208 28C32.368 28.37 32.5 28.805 32.5 29.25C32.4994 29.8466 32.2622 30.4185 31.8403 30.8403C31.4185 31.2622 30.8466 31.4994 30.25 31.5Z" fill="#FAFAFA"/>
<path d="M34 15H16C15.6022 15 15.2206 15.158 14.9393 15.4393C14.658 15.7206 14.5 16.1022 14.5 16.5V31.5C14.5 31.8978 14.658 32.2794 14.9393 32.5607C15.2206 32.842 15.6022 33 16 33H23.5V31.5H16V21H34V23.25H35.5V16.5C35.5 16.1022 35.342 15.7206 35.0607 15.4393C34.7794 15.158 34.3978 15 34 15ZM34 19.5H16V16.5H34V19.5Z" fill="#FAFAFA"/>
<path d="M28 18.75C28.4142 18.75 28.75 18.4142 28.75 18C28.75 17.5858 28.4142 17.25 28 17.25C27.5858 17.25 27.25 17.5858 27.25 18C27.25 18.4142 27.5858 18.75 28 18.75Z" fill="#FAFAFA"/>
<path d="M30.25 18.75C30.6642 18.75 31 18.4142 31 18C31 17.5858 30.6642 17.25 30.25 17.25C29.8358 17.25 29.5 17.5858 29.5 18C29.5 18.4142 29.8358 18.75 30.25 18.75Z" fill="#FAFAFA"/>
<path d="M32.5 18.75C32.9142 18.75 33.25 18.4142 33.25 18C33.25 17.5858 32.9142 17.25 32.5 17.25C32.0858 17.25 31.75 17.5858 31.75 18C31.75 18.4142 32.0858 18.75 32.5 18.75Z" fill="#FAFAFA"/>
</svg>
