<svg width="49" height="48" viewBox="0 0 49 48" fill="none" xmlns="http://www.w3.org/2000/svg">
<path d="M0.5 8C0.5 3.58172 4.08172 0 8.5 0H40.5C44.9183 0 48.5 3.58172 48.5 8V40C48.5 44.4183 44.9183 48 40.5 48H8.5C4.08172 48 0.5 44.4183 0.5 40V8Z" fill="#0167CB"/>
<path d="M35 28.9201V31.9201C35.0011 32.1986 34.9441 32.4743 34.8325 32.7294C34.7209 32.9846 34.5573 33.2137 34.3521 33.402C34.1468 33.5902 33.9046 33.7336 33.6407 33.8228C33.3769 33.912 33.0974 33.9452 32.82 33.9201C29.7428 33.5857 26.787 32.5342 24.19 30.8501C21.7738 29.3148 19.7253 27.2663 18.19 24.8501C16.5 22.2413 15.4482 19.2711 15.12 16.1801C15.095 15.9036 15.1279 15.6249 15.2165 15.3617C15.3051 15.0986 15.4476 14.8568 15.6348 14.6517C15.822 14.4466 16.0498 14.2828 16.3038 14.1706C16.5578 14.0584 16.8323 14.0004 17.11 14.0001H20.11C20.5953 13.9953 21.0658 14.1672 21.4338 14.4836C21.8017 14.8001 22.0421 15.2395 22.11 15.7201C22.2366 16.6802 22.4714 17.6228 22.81 18.5301C22.9445 18.888 22.9737 19.277 22.8939 19.651C22.8141 20.0249 22.6289 20.3682 22.36 20.6401L21.09 21.9101C22.5135 24.4136 24.5864 26.4865 27.09 27.9101L28.36 26.6401C28.6319 26.3712 28.9751 26.1859 29.3491 26.1062C29.7231 26.0264 30.1121 26.0556 30.47 26.1901C31.3773 26.5286 32.3199 26.7635 33.28 26.8901C33.7658 26.9586 34.2094 27.2033 34.5265 27.5776C34.8437 27.9519 35.0122 28.4297 35 28.9201Z" stroke="white" stroke-width="1.5" stroke-linecap="round" stroke-linejoin="round"/>
</svg>
