<svg width="49" height="48" viewBox="0 0 49 48" fill="none" xmlns="http://www.w3.org/2000/svg">
<path d="M0.5 8C0.5 3.58172 4.08172 0 8.5 0H40.5C44.9183 0 48.5 3.58172 48.5 8V40C48.5 44.4183 44.9183 48 40.5 48H8.5C4.08172 48 0.5 44.4183 0.5 40V8Z" fill="#0167CB"/>
<path d="M28 16C30.1217 16 32.1566 16.8429 33.6569 18.3431C35.1571 19.8434 36 21.8783 36 24C36 26.1217 35.1571 28.1566 33.6569 29.6569C32.1566 31.1571 30.1217 32 28 32C25.8783 32 23.8434 31.1571 22.3431 29.6569C20.8429 28.1566 20 26.1217 20 24C20 21.8783 20.8429 19.8434 22.3431 18.3431C23.8434 16.8429 25.8783 16 28 16ZM28 18C26.4087 18 24.8826 18.6321 23.7574 19.7574C22.6321 20.8826 22 22.4087 22 24C22 25.5913 22.6321 27.1174 23.7574 28.2426C24.8826 29.3679 26.4087 30 28 30C29.5913 30 31.1174 29.3679 32.2426 28.2426C33.3679 27.1174 34 25.5913 34 24C34 22.4087 33.3679 20.8826 32.2426 19.7574C31.1174 18.6321 29.5913 18 28 18ZM27 20H28.5V23.78L30.83 26.11L29.77 27.17L27 24.4V20ZM15 30C14.7348 30 14.4804 29.8946 14.2929 29.7071C14.1054 29.5196 14 29.2652 14 29C14 28.7348 14.1054 28.4804 14.2929 28.2929C14.4804 28.1054 14.7348 28 15 28H18.83C19.14 28.71 19.54 29.38 20 30H15ZM16 25C15.7348 25 15.4804 24.8946 15.2929 24.7071C15.1054 24.5196 15 24.2652 15 24C15 23.7348 15.1054 23.4804 15.2929 23.2929C15.4804 23.1054 15.7348 23 16 23H18.05L18 24L18.05 25H16ZM17 20C16.7348 20 16.4804 19.8946 16.2929 19.7071C16.1054 19.5196 16 19.2652 16 19C16 18.7348 16.1054 18.4804 16.2929 18.2929C16.4804 18.1054 16.7348 18 17 18H20C19.54 18.62 19.14 19.29 18.83 20H17Z" fill="#FAFAFA"/>
</svg>
